# xmcd
#
# Track frame offsets:
#	150
#	18895
#	36016
#	42655
#	62454
#	79669
#	110046
#	127147
#	147438
#	162989
#	177355
#	200332
#	204571
#	219462
#	227909
#	246092
#	248556
#	268839
#	290791
#	308580
#	312016
#
# Disc length: 4427 seconds
#
# Revision: 0
# Processed by: cddbd v1.4PL0 Copyright (c) Steve Scherf et al.
# Submitted via: EasyCDDAExtractor 4.6.9.1
#
DISCID=36114915
DTITLE=Wyclef Jean - Ultimate Collection
DYEAR=2002
DGENRE=R&B
TTITLE0=Perfect Gentleman
TTITLE1=It Doesn't Matter
TTITLE2=Whitney Houston
TTITLE3=Hollywood
TTITLE4=Wish You Were Here
TTITLE5=Thug Angels
TTITLE6=Where Fugees At
TTITLE7=Guantanamera
TTITLE8=Gone Till November
TTITLE9=Staying Alive
TTITLE10=Carnival
TTITLE11=Kenny Rogers Scene
TTITLE12=However You Want It
TTITLE13=Tommy's Office
TTITLE14=Sang Fezi
TTITLE15=Killer MC
TTITLE16=Mona Lisa
TTITLE17=Runaway
TTITLE18=Street Jeopardy
TTITLE19=Words Of Wisdom
TTITLE20=Nine-1-One
EXTD=
EXTT0=
EXTT1=
EXTT2=
EXTT3=
EXTT4=
EXTT5=
EXTT6=
EXTT7=
EXTT8=
EXTT9=
EXTT10=
EXTT11=
EXTT12=
EXTT13=
EXTT14=
EXTT15=
EXTT16=
EXTT17=
EXTT18=
EXTT19=
EXTT20=
PLAYORDER=
